{"title":"The Six Wives of Henry Lefay 2009 DVDRip XviD AC3-NiT3MaR3","uid":5826203,"size":812671324,"categoryP":"video","categoryS":"movies","magnet":"?xt=urn:btih:a959ae2f3631619855098e2d3b63497557905c4c&amp;dn=The+Six+Wives+of+Henry+Lefay+2009+DVDRip+XviD+AC3-NiT3MaR3&amp;tr=udp%3A%2F%2Ftracker.openbittorrent.com%3A80&amp;tr=udp%3A%2F%2Fopen.demonii.com%3A1337&amp;tr=udp%3A%2F%2Ftracker.coppersurfer.tk%3A6969&amp;tr=udp%3A%2F%2Fexodus.desync.com%3A6969","seeders":0,"leechers":0,"uploader":"nokia777","files":6,"time":1284291043,"description":" &lt;a href=&quot;http://leetleech.org/images/71840752606150889989.jpg&quot; rel=&quot;nofollow&quot; target=&quot;_NEW&quot;&gt;http://leetleech.org/images/71840752606150889989.jpg&lt;/a&gt;\n\nThe Six Wives of Henry Lefay 2009 R5 XviD AC3-NiT3MaR3\n\n\n\n\n\n\n\nGeneral\nFormat : AVI\nFile size : 765 MiB\nDuration : 1h 31mn\nOverall bit rate :  1 175 Kbps\nIMDb Rating : 5.1/10   465 votes\nGenre :     Comedy | Drama | Romance\nRelease :  7 February 2011  (UK)\nIMDb Link: http://www.imdb.com/title/tt1074214/\nLink:\nSource :  R5 DVD9\n\n\n\n\n\nVideo\nFormat : MPEG-4 Visual\nFormat profile : Advanced Simple@L5\nFormat settings, QPel : No\nFormat settings, GMC : No warppoints\nFormat settings, Matrix : Default (H.263)\nMuxing mode : Packed bitstream\nCodec ID : XVID\nBit rate : 909 Kbps\nWidth : 720 pixels\nHeight : 400 pixels\nDisplay aspect ratio : 16:9\nFrame rate : 25.000 fps\nChroma subsampling : 4:2:0\nBit depth : 8 bits\nScan type : Progressive\nBits/(Pixel*Frame) : 0.136\nStream size : 592 MiB (77%)\n\n\n\nAudio\nFormat : AC3\nBit rate mode : Constant\nBit rate : 256 Kbps\nChannel(s) : 6 channels\nSampling rate : 48.0 KHz\nStream size : 167 MiB (22%)\n\n\n\n\n\n\n\nA grieving daughter tries to arrange her father's funeral, while\nputting up with all of his ex-wives.\n\n\n\nTagline:\nN/A\n\n\n\n\nCAST:\nElisha Cuthbert ... Barbara 'Barbie' Lefay\nJenna Dewan ... Sarah Jane\nTim Allen ... Henry Lefay\nEric Christian Olsen Lloyd\nKelli Garner\nChris Klein ... Stevie\nLindsay Sloane ... Autumn\nAndie MacDowell ... Kate\nJenna Elfman ... Ophelia\nPaz Vega ... Veronica\nEdward Herrmann ... Goodenough\nLarry Miller ... Lipschutt\nS. Epatha Merkerson. Effa Devareaux\nBarbara Barrie ... Grandma Mae\nConnor Fox ... Best Man\n\n\n\n\nPersonal Greetz:\n\nNoir | Joshua08 | RaGe | xXTHORNXx |\n\nbigimac |  kempas | KaN1vE | mike160 |\n\nLungbuster | skillz\n\n\n\n\n\n\nscreens:\n &lt;a href=&quot;\nhttp://leetleech.org/images/83813095672323109309.png&quot; rel=&quot;nofollow&quot; target=&quot;_NEW&quot;&gt;\nhttp://leetleech.org/images/83813095672323109309.png&lt;/a&gt;\n &lt;a href=&quot;\nhttp://leetleech.org/images/46915614669371987249.png&quot; rel=&quot;nofollow&quot; target=&quot;_NEW&quot;&gt;\nhttp://leetleech.org/images/46915614669371987249.png&lt;/a&gt;\n","torrent":{"xt":"urn:btih:a959ae2f3631619855098e2d3b63497557905c4c","amp;dn":"The+Six+Wives+of+Henry+Lefay+2009+DVDRip+XviD+AC3-NiT3MaR3","amp;tr":["udp%3A%2F%2Ftracker.openbittorrent.com%3A80","udp%3A%2F%2Fopen.demonii.com%3A1337","udp%3A%2F%2Ftracker.coppersurfer.tk%3A6969","udp%3A%2F%2Fexodus.desync.com%3A6969"],"infoHash":"a959ae2f3631619855098e2d3b63497557905c4c","infoHashBuffer":{"type":"Buffer","data":[169,89,174,47,54,49,97,152,85,9,142,45,59,99,73,117,87,144,92,76]},"announce":[],"urlList":[]}}